<svg xmlns="http://www.w3.org/2000/svg" viewBox="0 0 35 35" shape-rendering="crispEdges" width="350" height="350">
  <rect width="35" height="35" fill="#0B111F"/>
  <g fill="#E89FB0">
    <rect x="8"  y="0" width="3" height="3"/>
    <rect x="16" y="0" width="3" height="3"/>
    <rect x="24" y="0" width="3" height="3"/>
    <rect x="8"  y="4" width="3" height="3"/>
    <rect x="12" y="4" width="3" height="3"/>
    <rect x="16" y="4" width="3" height="3"/>
    <rect x="20" y="4" width="3" height="3"/>
    <rect x="24" y="4" width="3" height="3"/>
    <rect x="8"  y="8" width="3" height="3"/>
    <rect x="12" y="8" width="3" height="3"/>
    <rect x="16" y="8" width="3" height="3"/>
    <rect x="20" y="8" width="3" height="3"/>
    <rect x="24" y="8" width="3" height="3"/>
    <rect x="12" y="12" width="3" height="3"/>
    <rect x="16" y="12" width="3" height="3"/>
    <rect x="20" y="12" width="3" height="3"/>
  </g>
  <g fill="#2f6e3a">
    <rect x="16" y="16" width="3" height="3"/>
    <rect x="16" y="20" width="3" height="3"/>
    <rect x="16" y="24" width="3" height="3"/>
    <rect x="16" y="28" width="3" height="3"/>
    <rect x="16" y="32" width="3" height="3"/>
  </g>
  <g fill="#3f8a4b">
    <rect x="12" y="20" width="3" height="3"/>
    <rect x="20" y="20" width="3" height="3"/>
    <rect x="12" y="28" width="3" height="3"/>
    <rect x="20" y="28" width="3" height="3"/>
  </g>
</svg>
